<svg width="100" height="86" viewBox="0 0 100 86" fill="none" xmlns="http://www.w3.org/2000/svg">
<path d="M88.3313 28.7261C88.3313 28.6011 88.3313 28.4761 88.3313 28.3511C88.3388 12.7005 75.6575 0.0072961 60.0069 3.29733e-06C50.4877 -0.00458075 41.6022 4.77074 36.3532 12.712C25.862 9.20997 14.5182 14.8759 11.0162 25.3671C10.3363 27.4043 9.98832 29.5373 9.98582 31.6849C9.98582 31.8266 9.98582 31.97 9.98582 32.1133C2.85742 33.9651 -1.42012 41.2449 0.431626 48.3731C1.95686 54.2447 7.2531 58.347 13.3197 58.3557H43.2143C44.1349 58.3557 44.8812 57.6094 44.8812 56.6888C44.8812 55.7682 44.1349 55.0219 43.2143 55.0219H13.3197C7.7961 54.989 3.34499 50.4847 3.37771 44.9611C3.40709 40.0091 7.05599 35.8243 11.9578 35.1205C12.8396 35.0019 13.4728 34.2116 13.3963 33.3252C13.3513 32.7884 13.3197 32.2367 13.3197 31.6849C13.3315 22.4668 20.814 15.0036 30.0321 15.0155C32.218 15.0182 34.3821 15.4505 36.4016 16.2875C37.1669 16.6055 38.0498 16.313 38.4736 15.6008C45.5049 3.71558 60.8395 -0.219198 72.7247 6.81189C80.3374 11.3155 85.0041 19.5059 84.9975 28.3511C84.9975 28.9028 84.9825 29.4379 84.9375 29.9747C84.8601 30.8715 85.5088 31.6676 86.4027 31.7733C92.7983 32.5646 97.3413 38.3908 96.5499 44.7863C95.8279 50.6214 90.8771 55.0079 84.9975 55.0219C84.4961 55.0225 83.995 54.9931 83.4972 54.9335C83.258 54.9041 83.0151 54.9346 82.7905 55.0219H56.5997C55.6792 55.0219 54.9328 55.7682 54.9328 56.6888C54.9328 57.6094 55.6792 58.3557 56.5997 58.3557H83.3305C83.4578 58.3553 83.5845 58.338 83.7073 58.3041C84.129 58.3391 84.5607 58.3557 84.9975 58.3557C93.2831 58.3559 100 51.6393 100 43.3536C100 36.3523 95.1576 30.2818 88.3313 28.7261Z" fill="inherit"/>
<path d="M62.9578 68.8458L51.6593 80.1442V33.352C51.6593 32.4314 50.913 31.6851 49.9924 31.6851C49.0719 31.6851 48.3255 32.4314 48.3255 33.352V80.1442L37.0271 68.8458C36.3649 68.2061 35.3097 68.2245 34.67 68.8867C34.0462 69.5326 34.0462 70.5567 34.67 71.2029L48.8139 85.3467C49.4648 85.9975 50.52 85.9975 51.1709 85.3467L65.3148 71.2029C65.9545 70.5407 65.9361 69.4855 65.274 68.8458C64.628 68.2218 63.6037 68.2218 62.9578 68.8458Z" fill="inherit"/>
</svg>
